<svg xmlns="http://www.w3.org/2000/svg" viewBox="0 0 24 24" data-supported-dps="24x24" fill="currentColor" class="mercado-match" width="24" height="24" focusable="false">
  <path d="M12 2a10 10 0 1010 10A10 10 0 0012 2zm8 10a8 8 0 01-6 7.73l2.39-3a1.5 1.5 0 00.17-1.61l-1.16-2.31a1.5 1.5 0 00-1.33-.81H10v-.38a1 1 0 01.55-.9l.81-.4a1 1 0 011.15.19L13 11l.84-1.68a1.44 1.44 0 00.16-.67v-1a1.5 1.5 0 01.44-1.06L16 5.05A8 8 0 0120 12zM6.56 8.56A1.5 1.5 0 017 9.62v.76a1.5 1.5 0 00.44 1.06l1.12 1.12a1.5 1.5 0 001.06.44H10v1.38a1.5 1.5 0 00.44 1.06l1.12 1.12a1.5 1.5 0 01.44 1.06V20a8 8 0 01-8-8 7.91 7.91 0 011.44-4.56z"></path>
</svg>
